<svg height="480pt" viewBox="-72 0 480 480.00004" width="480pt" xmlns="http://www.w3.org/2000/svg"><path d="m96 480h144c13.253906 0 24-10.746094 24-24v-8h.710938c12.84375.011719 23.417968-10.082031 24-22.910156l14.9375-329.089844h24.351562c4.417969 0 8-3.582031 8-8v-32c0-4.417969-3.582031-8-8-8h-27.71875l-29.601562-44.441406c-1.488282-2.230469-3.996094-3.5664065-6.679688-3.558594h-192c-2.675781 0-5.171875 1.335938-6.65625 3.558594l-29.625 44.441406h-27.71875c-4.417969 0-8 3.582031-8 8v32c0 4.417969 3.582031 8 8 8h24.351562l14.960938 329.097656c.585938 12.824219 11.160156 22.914063 24 22.902344h.6875v8c0 13.253906 10.746094 24 24 24zm152-24c0 4.417969-3.582031 8-8 8h-144c-4.417969 0-8-3.582031-8-8v-8h160zm-195.257812-264h230.515624l-6.539062 144h-217.4375zm23.539062-176h183.4375l21.335938 32h-226.109376zm-60.28125 48h304v16h-304zm271.625 32-3.625 80h-232l-3.632812-80zm-216.335938 336c-4.28125.003906-7.804687-3.359375-8-7.632812l-3.289062-72.367188h216l-3.289062 72.359375c-.191407 4.277344-3.71875 7.644531-8 7.640625zm0 0"/></svg>