<svg height="480pt" viewBox="0 0 480 480" width="480pt" xmlns="http://www.w3.org/2000/svg"><path d="m365.550781 336h82.449219c23.59375 0 32-12.398438 32-24v-112c0-13.253906-10.746094-24-24-24h-52.921875l12.714844-54.167969c.558593-2.378906 0-4.886719-1.519531-6.800781-1.515626-1.917969-3.828126-3.03125-6.273438-3.03125h-336c-2.402344 0-4.675781 1.082031-6.191406 2.941406-1.519532 1.863282-2.121094 4.304688-1.640625 6.660156l50.070312 243.910157c3.902344 18.476562 12.101563 35.773437 23.9375 50.488281h-129.679687c-4.609375.195312-8.300782 3.886719-8.496094 8.496094.03125 30.636718 24.859375 55.46875 55.496094 55.503906h369c30.640625-.03125 55.472656-24.863281 55.503906-55.503906-.195312-4.613282-3.890625-8.304688-8.503906-8.496094h-140.398438c13.015625-13.820312 22.363282-30.679688 27.199219-49.039062zm26.273438-112h32.175781c4.417969 0 8 3.582031 8 8v48c0 4.417969-3.582031 8-8 8h-47.199219zm64.175781-32c4.417969 0 8 3.582031 8 8v112c0 7.199219-11.199219 8-16 8h-78.695312l3.75-16h50.945312c13.253906 0 24-10.746094 24-24v-48c0-13.253906-10.746094-24-24-24h-28.425781l3.753906-16zm-31.503906 272h-369c-18.914063-.023438-35.167969-13.433594-38.785156-32h446.578124c-3.621093 18.570312-19.875 31.976562-38.792968 32zm-124.664063-48h-131.832031c-16.976562 0-33.871094-31.679688-38.0625-53.601562l-38.273438-186.398438h92.335938c4.417969 0 8-3.582031 8-8s-3.582031-8-8-8h-95.617188l-6.566406-32h190.183594v104h-8c-3.75-.003906-7 2.601562-7.816406 6.265625l-16 72c-.527344 2.367187.050781 4.847656 1.570312 6.742187 1.519532 1.894532 3.816406 2.996094 6.246094 2.992188h64c2.429688.003906 4.726562-1.097656 6.246094-2.992188 1.519531-1.894531 2.097656-4.375 1.570312-6.742187l-16-72c-.816406-3.664063-4.066406-6.269531-7.816406-6.265625h-8v-104h109.902344l-55.199219 235.425781c-4.558594 20.757813-25.558594 52.574219-42.871094 52.574219zm-10.230469-168 12.4375 56h-44.0625l12.421876-56zm0 0"/><path d="m245.128906 27.488281c6.554688-4.359375 10.605469-11.617187 10.871094-19.488281 0-4.417969-3.582031-8-8-8s-8 3.582031-8 8c0 2.695312-1.246094 4-5.128906 7.199219-6.554688 4.359375-10.601563 11.613281-10.871094 19.480469.265625 7.871093 4.316406 15.128906 10.871094 19.488281 3.882812 3.199219 5.128906 4.496093 5.128906 7.199219 0 2.570312-1.03125 3.769531-5.121094 7.199218-6.550781 4.34375-10.601562 11.578125-10.878906 19.433594 0 4.417969 3.582031 8 8 8s8-3.582031 8-8c0-2.566406 1.03125-3.769531 5.121094-7.199219 6.550781-4.34375 10.605468-11.582031 10.878906-19.441406-.265625-7.871094-4.316406-15.128906-10.871094-19.488281-3.882812-3.199219-5.128906-4.496094-5.128906-7.199219s1.246094-3.960937 5.128906-7.183594zm0 0"/><path d="m293.128906 27.488281c6.554688-4.359375 10.605469-11.617187 10.871094-19.488281 0-4.417969-3.582031-8-8-8s-8 3.582031-8 8c0 2.695312-1.246094 4-5.128906 7.199219-6.554688 4.359375-10.601563 11.613281-10.871094 19.480469.265625 7.871093 4.316406 15.128906 10.871094 19.488281 3.882812 3.199219 5.128906 4.496093 5.128906 7.199219 0 2.570312-1.03125 3.769531-5.121094 7.199218-6.550781 4.34375-10.601562 11.578125-10.878906 19.433594 0 4.417969 3.582031 8 8 8s8-3.582031 8-8c0-2.566406 1.03125-3.769531 5.121094-7.199219 6.550781-4.34375 10.605468-11.582031 10.878906-19.441406-.265625-7.871094-4.316406-15.128906-10.871094-19.488281-3.882812-3.199219-5.128906-4.496094-5.128906-7.199219s1.246094-3.960937 5.128906-7.183594zm0 0"/><path d="m197.128906 27.488281c6.554688-4.359375 10.605469-11.617187 10.871094-19.488281 0-4.417969-3.582031-8-8-8s-8 3.582031-8 8c0 2.695312-1.246094 4-5.128906 7.199219-6.554688 4.359375-10.601563 11.613281-10.871094 19.480469.265625 7.871093 4.316406 15.128906 10.871094 19.488281 3.882812 3.199219 5.128906 4.496093 5.128906 7.199219 0 2.570312-1.03125 3.769531-5.121094 7.199218-6.550781 4.34375-10.601562 11.578125-10.878906 19.433594 0 4.417969 3.582031 8 8 8s8-3.582031 8-8c0-2.566406 1.03125-3.769531 5.121094-7.199219 6.550781-4.34375 10.605468-11.582031 10.878906-19.441406-.265625-7.871094-4.316406-15.128906-10.871094-19.488281-3.882812-3.199219-5.128906-4.496094-5.128906-7.199219s1.246094-3.960937 5.128906-7.183594zm0 0"/><path d="m248 168c0-4.417969-3.582031-8-8-8h-24c-4.417969 0-8 3.582031-8 8s3.582031 8 8 8h24c4.417969 0 8-3.582031 8-8zm0 0"/></svg>