<svg height="480pt" viewBox="-76 0 480 480.00009" width="480pt" xmlns="http://www.w3.org/2000/svg"><path d="m248 112h16v16h-16zm0 0"/><path d="m256 176h16v16h-16zm0 0"/><path d="m310.9375 256h9.0625c4.417969 0 8-3.582031 8-8v-32c0-4.417969-3.582031-8-8-8h-16.207031c7.726562-10.042969 10.175781-23.175781 6.59375-35.328125-3.585938-12.15625-12.769531-21.859375-24.707031-26.105469 10.601562-11.691406 13.292968-28.542968 6.867187-42.960937-6.429687-14.414063-20.761719-23.671875-36.546875-23.605469h-8.382812c-2.738282-30.398438-21.058594-39.664062-36-47.160156-10.617188-5.304688-18.03125-21.601563-20-27.375-1.15625-3.289063-4.269532-5.480469-7.753907-5.464844-3.480469.0585938-6.523437 2.363281-7.527343 5.695312l-22.289063 74.304688h-10.046875c-.175781 0-.335938.046875-.503906.046875l-40.441406-75.816406c-1.390626-2.601563-4.101563-4.230469-7.054688-4.230469h-88c-4.417969 0-8 3.582031-8 8v32c0 4.417969 3.582031 8 8 8h60.265625l36.160156 67.800781c-.21875 1.390625-.363281 2.792969-.425781 4.199219.035156 9.828125 3.710938 19.292969 10.320312 26.566406-11.9375 4.246094-21.121093 13.949219-24.707031 26.105469-3.582031 12.152344-1.132812 25.285156 6.59375 35.328125h-16.207031c-4.417969 0-8 3.582031-8 8v32c0 4.417969 3.582031 8 8 8h9.0625l31.015625 217.136719c.566406 3.9375 3.941406 6.863281 7.921875 6.863281h144c3.980469 0 7.355469-2.925781 7.921875-6.863281zm-125.042969-226.472656c4.570313 7.355468 10.949219 13.414062 18.53125 17.601562 13.75 6.871094 24.925781 12.464844 27.199219 32.839844h-60.800781zm-41.894531 66.472656h112c13.253906 0 24 10.746094 24 24s-10.746094 24-24 24h-112c-13.253906 0-24-10.746094-24-24s10.746094-24 24-24zm-31.921875.152344-31.949219-59.921875c-1.394531-2.605469-4.109375-4.234375-7.066406-4.230469h-57.0625v-16h75.199219l36.136719 67.753906c-6.035157 2.800782-11.277344 7.0625-15.257813 12.398438zm15.921875 63.847656h144c13.253906 0 24 10.746094 24 24s-10.746094 24-24 24h-144c-13.253906 0-24-10.746094-24-24s10.746094-24 24-24zm137.0625 304h-130.125l-22.9375-160.800781c.121094 0 .265625.039062.382812.066406l.65625.101563c2.296876.421874 4.625.632812 6.960938.632812 9.273438.066406 18.214844-3.421875 24.992188-9.75 3.964843-3.996094 9.359374-6.246094 14.988281-6.246094 5.628906 0 11.023437 2.25 14.988281 6.246094 14.121094 13.007812 35.859375 13.007812 49.984375 0 3.933594-4.039062 9.34375-6.296875 14.984375-6.25 5.644531-.023438 11.058594 2.230469 15.023438 6.25 6.789062 6.335938 15.75 9.828125 25.039062 9.75 2.347656-.003906 4.691406-.214844 7-.640625.207031-.039063.441406-.054687.648438-.09375.207031-.042969.289062-.042969.414062-.074219zm25.601562-178.976562-.054687.039062-.210937.113281c-.742188.472657-1.519532.890625-2.328126 1.25-.285156.125-.589843.230469-.886718.351563-.734375.269531-1.484375.492187-2.246094.664062-.335938.078125-.664062.167969-1.035156.222656-1.289063.222657-2.59375.335938-3.902344.335938-5.640625.023438-11.054688-2.226562-15.015625-6.246094-14.132813-13.007812-35.875-13.007812-50.007813 0-3.96875 3.996094-9.367187 6.242188-14.996093 6.242188-5.632813 0-11.03125-2.246094-14.996094-6.242188-14.117187-13.015625-35.859375-13.015625-49.976563 0-3.941406 4.039063-9.363281 6.296875-15.007812 6.246094-1.304688 0-2.605469-.113281-3.886719-.335938-.371093-.054687-.695312-.144531-1.035156-.222656-.753906-.164062-1.496094-.382812-2.222656-.65625-.304688-.121094-.617188-.226562-.902344-.351562-.765625-.347656-1.503906-.742188-2.21875-1.183594-.101563-.074219-.222656-.121094-.328125-.195312l-4.183594-29.054688h189.554688zm-202.664062-45.023438v-16h224v16zm0 0"/><path d="m257.054688 312.070312c-4.375-.582031-8.398438 2.496094-8.984376 6.875l-15.070312 113.054688h-25c-4.417969 0-8 3.582031-8 8s3.582031 8 8 8h32c4.007812 0 7.398438-2.96875 7.929688-6.945312l16-120c.582031-4.375-2.496094-8.398438-6.875-8.984376zm0 0"/><path d="m176 432h-16c-4.417969 0-8 3.582031-8 8s3.582031 8 8 8h16c4.417969 0 8-3.582031 8-8s-3.582031-8-8-8zm0 0"/></svg>