<svg height="480pt" viewBox="-72 0 480 480.08656" width="480pt" xmlns="http://www.w3.org/2000/svg" xmlns:xlink="http://www.w3.org/1999/xlink"><linearGradient id="a"><stop offset="0" stop-color="#f9a86d"/><stop offset=".503" stop-color="#f05361"/><stop offset="1" stop-color="#b72563"/></linearGradient><linearGradient id="b" gradientUnits="userSpaceOnUse" x1="-79.95672" x2="417.39528" xlink:href="#a" y1="295.996598" y2="295.996598"/><linearGradient id="c" gradientUnits="userSpaceOnUse" x1="-79.95672" x2="417.39528" xlink:href="#a" y1="240.004598" y2="240.004598"/><linearGradient id="d" gradientUnits="userSpaceOnUse" x1="-79.95672" x2="417.39528" xlink:href="#a" y1="128.004598" y2="128.004598"/><linearGradient id="e" gradientUnits="userSpaceOnUse" x1="-79.95672" x2="417.39528" xlink:href="#a" y1="64.004598" y2="64.004598"/><linearGradient id="f" gradientUnits="userSpaceOnUse" x1="-79.95672" x2="417.39528" xlink:href="#a" y1="96.004598" y2="96.004598"/><linearGradient id="g" gradientUnits="userSpaceOnUse" x1="-79.95672" x2="417.39528" xlink:href="#a" y1="112.004598" y2="112.004598"/><path d="m188.84375 226.40625c-4.015625-1.421875-8.222656-2.230469-12.480469-2.402344-25.902343-.871094-50.808593 21.234375-60.40625 54-9.601562 32.769532-.722656 67.382813 21.109375 82.3125 3.132813 2.160156 6.535156 3.898438 10.121094 5.167969 4.550781 1.648437 9.351562 2.5 14.191406 2.519531 7.578125-.082031 15.027344-1.96875 21.726563-5.503906 18.421875-10.507812 31.785156-28.042969 37.027343-48.589844 11.191407-38.242187-2.824218-77.496094-31.289062-87.503906zm-57.601562 56.148438c6.328124-21.597657 20.855468-37.773438 36.367187-41.636719v1.144531c0 1.46875.066406 2.894531.128906 4.292969 0 .632812 0 1.289062.082031 1.914062.101563 1.878907.230469 3.726563.359376 5.542969 1.511718 13.964844.132812 28.089844-4.054688 41.496094-3.523438 13.585937-9.8125 26.300781-18.472656 37.34375-.960938 1.320312-1.921875 2.648437-2.890625 4l-.742188 1.082031c-.746093 1.054687-1.480469 2.125-2.214843 3.246094-.089844.128906-.167969.230469-.25.359375-11.253907-13.191406-14.839844-36.3125-8.246094-58.808594zm73.464843 26.851562c-4.097656 16.285156-14.515625 30.265625-28.953125 38.847656-7.027344 3.925782-15.371094 4.757813-23.039062 2.300782l.3125-.484376c1.816406-2.777343 3.679687-5.363281 5.601562-8 .894532-1.226562 1.789063-2.457031 2.6875-3.722656 8.441406-11.625 14.625-24.730468 18.230469-38.640625 4.71875-15.199219 6.292969-31.203125 4.625-47.03125-.25-3.511719-.472656-6.933593-.527344-10.542969v-.609374c20.160157 7.226562 29.808594 38.25 21.125 67.855468zm0 0" fill="url(#b)"/><path d="m24.921875 160.003906h-.878906c-2.324219 0-4.535157 1.011719-6.054688 2.773438-1.519531 1.761718-2.195312 4.09375-1.855469 6.394531l41.597657 281.152344c2.503906 16.921875 19.5625 29.679687 39.6875 29.679687h135.679687c18.527344 1.214844 35.242188-11.074218 39.601563-29.121094l47.199219-281.550781c.390624-2.316406-.257813-4.683593-1.769532-6.480469-1.511718-1.796874-3.738281-2.835937-6.085937-2.847656h-.878907c15.441407-11.652344 24.628907-29.796875 24.878907-49.144531 0-36.261719-33.28125-65.847656-73.183594-65.136719l6.34375-25.367187 54.761719 32.449219c3.800781 2.253906 8.710937.996093 10.960937-2.804688 2.253907-3.800781 1-8.710938-2.800781-10.964844l-64-37.886718c-2.175781-1.289063-4.828125-1.472657-7.160156-.503907-2.332032.972657-4.066406 2.988281-4.679688 5.441407l-7.722656 30.878906c-17.488281-23.328125-44.964844-37.027344-74.121094-36.96093775-34.09375-.33984425-65.527344 18.37499975-81.46875 48.51171875-6.820312-1.867187-13.859375-2.808594-20.929687-2.800781-39.703125 0-72.0000002 29.226562-72.0000002 65.144531.2500002 19.347656 9.4375002 37.492187 24.8789062 49.144531zm277.664063 16-45.671876 272.234375c-3.234374 10.207031-13.152343 16.773438-23.816406 15.765625h-135.664062c-10.730469.957032-20.671875-5.707031-23.863282-16l-2.328124-16h40.800781c4.417969 0 8-3.582031 8-8 0-4.417968-3.582031-8-8-8h-43.199219l-35.527344-240zm17.457031-65.144531c0 27.097656-25.128907 49.144531-56 49.144531h-29.757813l24.511719-98.039062c32.878906-2.808594 61.246094 20.289062 61.246094 48.894531zm-248-49.144531c7.628906-.015625 15.191406 1.367187 22.320312 4.082031 4.042969 1.542969 8.578125-.40625 10.238281-4.398437 12.035157-27.09375 38.644532-44.789063 68.28125-45.40625 29.636719-.621094 56.964844 15.945312 70.121094 42.507812.039063.082031.113282.136719.152344.214844l-25.351562 101.289062h-145.761719c-30.871094 0-56-22.046875-56-49.144531 0-27.09375 25.128906-49.144531 56-49.144531zm0 0" fill="url(#c)"/><path d="m144.042969 144.003906c2.121093 0 4.15625-.84375 5.65625-2.34375l16-16c3.03125-3.136718 2.988281-8.128906-.097657-11.214844-3.085937-3.085937-8.074218-3.128906-11.214843-.097656l-16 16c-2.285157 2.289063-2.972657 5.730469-1.734375 8.71875 1.238281 2.988282 4.15625 4.9375 7.390625 4.9375zm0 0" fill="url(#d)"/><path d="m186.386719 77.660156c3.140625 3.03125 8.128906 2.988282 11.214843-.097656 3.085938-3.085938 3.128907-8.074219.097657-11.214844l-16-16c-3.140625-3.03125-8.128907-2.988281-11.214844.097656-3.085937 3.085938-3.128906 8.078126-.097656 11.214844zm0 0" fill="url(#e)"/><path d="m72.042969 112.003906c2.121093 0 4.15625-.84375 5.65625-2.34375l16-16c3.03125-3.136718 2.988281-8.128906-.097657-11.214844-3.085937-3.085937-8.074218-3.128906-11.214843-.097656l-16 16c-2.285157 2.289063-2.972657 5.730469-1.734375 8.71875 1.238281 2.988282 4.15625 4.9375 7.390625 4.9375zm0 0" fill="url(#f)"/><path d="m282.386719 125.660156c3.140625 3.03125 8.128906 2.988282 11.214843-.097656 3.085938-3.085938 3.128907-8.074219.097657-11.214844l-16-16c-3.140625-3.03125-8.128907-2.988281-11.214844.097656-3.085937 3.085938-3.128906 8.078126-.097656 11.214844zm0 0" fill="url(#g)"/></svg>